<?xml version="1.0" encoding="UTF-8"?>
<!DOCTYPE svg PUBLIC "-//W3C//DTD SVG 1.1//EN" "http://www.w3.org/Graphics/SVG/1.1/DTD/svg11.dtd">
<!-- Creator: CorelDRAW 2020 (64 Bit) -->
<svg xmlns="http://www.w3.org/2000/svg" xml:space="preserve" width="177mm" height="91.042mm" version="1.1" style="shape-rendering:geometricPrecision; text-rendering:geometricPrecision; image-rendering:optimizeQuality; fill-rule:evenodd; clip-rule:evenodd"
viewBox="0 0 17700 9104.2"
 xmlns:xlink="http://www.w3.org/1999/xlink"
 xmlns:xodm="http://www.corel.com/coreldraw/odm/2003">
 <defs>
  <style type="text/css">
   <![CDATA[
    .fil0 {fill:#FEFEFE;fill-rule:nonzero}
   ]]>
  </style>
 </defs>
 <g id="Camada_x0020_1">
  <metadata id="CorelCorpID_0Corel-Layer"/>
  <path class="fil0" d="M6278.64 6039.46c47,-38.46 96.13,-45.94 147.41,-22.43 22.62,10.36 41.08,23.43 55.38,39.2 -126.26,-468.59 -125.46,-1074.51 2.41,-1817.79 55.55,-329.01 136.74,-676.18 243.56,-1041.51 106.81,-365.33 232.87,-721.04 378.15,-1067.15 145.27,-346.1 299.1,-655.89 461.46,-929.34 162.37,-273.47 334.35,-488.18 515.96,-644.14 181.59,-155.96 355.71,-221.12 522.35,-195.48 8.54,0 17.09,2.13 25.63,6.41 128.2,42.73 215.79,132.45 262.79,269.18 59.82,183.74 30.98,467.89 -86.53,852.44 -117.5,384.56 -269.18,769.12 -455.06,1153.68 -185.86,384.55 -409.12,805.43 -669.77,1262.63 -260.64,457.19 -458.26,794.75 -592.86,1012.66 -134.59,217.93 -255.31,410.2 -362.12,576.85 -8.55,12.82 -19.23,23.5 -32.05,32.04 51.27,696.48 294.83,1087.44 730.66,1172.91 119.64,21.36 239.28,13.88 358.92,-22.44 119.64,-36.32 220.05,-84.39 301.24,-144.21 81.18,-59.82 159.16,-129.26 233.93,-208.3 74.78,-79.05 124.99,-136.73 150.62,-173.05 6.57,-9.31 12.56,-18.12 18.02,-26.44 -21.59,-47.68 -37.23,-104.02 -46.89,-169.04 -23.5,-158.1 -13.89,-341.83 28.84,-551.2 42.73,-209.38 87.59,-395.24 134.59,-557.62 47.01,-162.36 100.42,-324.73 160.24,-487.1 12.82,-38.46 37.38,-66.23 73.71,-83.32 36.32,-17.09 73.7,-19.23 112.16,-6.41 25.63,8.55 47,23.5 64.09,44.86 17.09,21.37 27.77,43.8 32.05,67.3 4.28,23.51 2.14,50.2 -6.42,80.11 -89.72,247.83 -163.42,492.46 -221.12,733.88 -57.68,241.41 -88.65,428.35 -92.92,560.8 -4.28,132.47 8.54,217.92 38.45,256.38 141,76.91 352.51,-5.34 634.52,-246.76 282.01,-241.42 540.52,-524.5 775.52,-849.24 15.11,-20.13 32.81,-35.46 53.11,-45.95 74.22,-104.54 154.79,-202.45 241.72,-293.73 170.91,-179.47 324.74,-288.42 461.47,-326.88 119.63,-38.45 228.59,-27.77 326.87,32.05 55.55,34.18 104.69,85.45 147.41,153.82 0,-4.28 0,-7.47 0,-9.61 0,-2.14 0,-3.21 0,-3.21 21.37,-34.18 50.21,-58.75 86.53,-73.7 36.32,-14.96 72.64,-13.89 108.96,3.2 36.32,17.09 63.03,44.86 80.12,83.32 17.09,38.45 17.09,74.78 0,108.96 -59.82,149.55 -126.06,301.23 -198.7,455.06 -94,243.55 -154.89,452.93 -182.66,628.11 -27.78,175.19 -13.88,288.42 41.66,339.69 59.82,42.73 132.46,51.28 217.91,25.64 85.47,-25.64 168.79,-63.03 249.97,-112.16 81.18,-49.14 165.57,-113.23 253.17,-192.28 87.59,-79.04 161.3,-151.69 221.12,-217.92 59.82,-66.23 111.09,-127.12 153.82,-182.67 17.3,-20.18 38.01,-35.01 62.13,-44.49 -20.14,-27.04 -36.58,-49.6 -49.33,-67.66 -25.65,-36.33 -55.56,-81.19 -89.74,-134.6 -34.18,-53.41 -59.82,-100.41 -76.91,-141 -17.09,-40.6 -25.64,-80.12 -25.64,-118.58 -8.54,-106.82 3.21,-208.3 35.26,-304.44 32.04,-96.14 73.7,-178.39 124.97,-246.76 51.28,-68.36 115.37,-133.52 192.28,-195.48 76.91,-61.95 148.49,-111.09 214.72,-147.41 66.22,-36.33 134.59,-69.44 205.09,-99.35 70.51,-29.91 120.71,-49.13 150.62,-57.68 29.91,-8.54 55.54,-17.09 76.91,-25.64 38.45,-8.54 75.84,-3.2 112.16,16.02 36.32,19.23 59.82,49.14 70.5,89.73 10.69,40.59 5.35,79.06 -16.01,115.38 -21.37,36.31 -51.28,58.74 -89.73,67.29 -17.09,4.27 -47.01,13.89 -89.74,28.84 -42.73,14.96 -107.88,44.87 -195.48,89.73 -87.6,44.86 -167.71,95.07 -240.35,150.62 -72.64,55.55 -135.66,127.12 -189.08,214.71 -53.41,87.59 -75.83,180.53 -67.29,278.81 4.27,47 89.73,179.46 256.37,397.37 128.19,166.64 222.19,294.83 282.01,384.56 123.91,-59.82 292.69,-138.86 506.33,-237.15 115.37,-55.54 190.15,-89.73 224.33,-102.54 34.19,-21.37 71.57,-25.64 112.16,-12.82 40.6,12.82 70.51,38.45 89.74,76.91 19.22,38.45 22.42,76.91 9.61,115.37 -12.82,38.46 -38.46,66.23 -76.91,83.32 -34.19,17.09 -111.1,53.41 -230.74,108.96 -188.01,85.45 -350.37,162.36 -487.11,230.74 145.28,324.73 134.6,608.88 -32.04,852.43 -158.1,230.73 -363.2,417.67 -615.29,560.81 -252.11,143.15 -478.56,214.71 -679.39,214.71 -55.55,0 -104.69,-6.41 -147.41,-19.23 -175.19,-42.72 -271.33,-151.68 -288.43,-326.86 -47,-431.56 401.65,-899.45 1345.96,-1403.65 -39.01,-58.52 -88.02,-127.04 -147.03,-205.56l-0.35 0.47c-29.91,38.45 -65.17,81.18 -105.76,128.18 -40.59,47 -105.75,115.37 -195.48,205.11 -89.73,89.72 -179.46,168.77 -269.19,237.13 -89.74,68.37 -192.28,128.19 -307.65,179.47 -115.36,51.27 -224.33,76.91 -326.87,76.91 -102.55,0 -196.55,-25.64 -282.01,-76.91 -128.19,-76.92 -194.42,-215.78 -198.69,-416.6 -286.29,350.36 -557.61,491.37 -813.98,423.01 -209.37,-59.83 -316.2,-207.24 -320.47,-442.25 -0.25,-9.95 -0.27,-20.02 -0.07,-30.2l-31.97 33.41c-153.82,160.23 -316.18,290.56 -487.11,390.97 -170.91,100.41 -326.87,150.62 -467.87,150.62 -51.62,0 -101.12,-6.36 -148.5,-19.09l-2.09 3.06c-27.77,40.59 -81.18,104.68 -160.23,192.28 -79.04,87.59 -162.37,165.58 -249.96,233.94 -87.6,68.37 -197.62,130.32 -330.08,185.87 -132.46,55.54 -267.06,83.32 -403.79,83.32 -68.36,0 -136.72,-6.41 -205.09,-19.23 -412.33,-79.94 -696.23,-353.57 -851.7,-820.89 -4.66,34.33 -22.04,66.55 -52.12,96.64 -42.74,38.46 -169.85,143.14 -381.36,314.05 -211.5,170.92 -349.3,280.94 -413.39,330.08 -64.09,49.14 -191.21,149.55 -381.35,301.23 -190.14,151.69 -330.07,257.43 -419.8,317.26 -89.73,59.82 -222.19,152.75 -397.37,278.8 -175.2,126.05 -322.6,222.18 -442.24,288.41 -119.64,66.24 -259.57,145.28 -419.81,237.15 -160.23,91.86 -316.18,170.91 -467.87,237.14 -151.68,66.23 -306.58,127.11 -464.67,182.66 -149.55,51.28 -300.17,97.21 -451.85,137.8 -151.68,40.59 -322.6,77.98 -512.74,112.16 -190.14,34.18 -369.6,44.86 -538.37,32.05 -168.78,-12.82 -327.95,-43.79 -477.49,-92.94 -149.55,-49.14 -276.67,-136.73 -381.35,-262.77 -104.69,-126.05 -171.98,-285.21 -201.89,-477.49 -38.46,-239.28 -34.18,-491.38 12.82,-756.3 47,-264.9 131.38,-527.69 253.16,-788.32 121.78,-260.65 242.49,-493.52 362.12,-698.61 119.64,-205.1 262.78,-423.01 429.42,-653.75 495.65,-709.28 1027.62,-1294.66 1595.9,-1756.13 -4.27,0 -24.57,3.21 -60.89,9.62 -36.32,6.41 -65.15,11.75 -86.53,16.02 -158.09,29.91 -283.07,50.21 -374.93,60.89 -91.87,10.68 -213.64,9.61 -365.33,-3.21 -151.68,-12.82 -272.39,-51.27 -362.12,-115.36 -145.27,-98.27 -233.94,-240.35 -265.98,-426.21 -32.05,-185.87 -18.17,-379.22 41.65,-580.04 59.83,-200.83 134.6,-388.82 224.33,-564.02 89.73,-175.18 181.59,-318.31 275.6,-429.41 264.91,-320.46 585.37,-602.47 961.38,-846.02 376.01,-243.55 764.84,-420.88 1166.48,-531.97 371.73,-106.82 643.06,-102.54 813.97,12.82 158.1,102.55 251.04,251.03 278.81,445.45 27.77,194.41 -18.17,362.12 -137.8,503.11 -38.46,42.74 -86.53,58.76 -144.21,48.08 -57.68,-10.68 -97.21,-38.46 -118.57,-83.32 -21.37,-44.86 -14.96,-92.94 19.22,-144.21 64.09,-76.91 103.62,-146.34 118.58,-208.3 14.95,-61.95 8.54,-113.23 -19.23,-153.82 -27.77,-40.59 -67.3,-74.77 -118.57,-102.55 -51.28,-27.78 -108.96,-47 -173.05,-57.68 -64.09,-10.69 -128.19,-16.02 -192.28,-16.02 -64.09,0 -119.64,6.41 -166.64,19.23 -222.19,51.27 -476.42,149.54 -762.7,294.82 -619.55,316.18 -1089.56,702.88 -1410.03,1160.07 -209.37,299.1 -320.46,596.06 -333.28,890.88 -8.54,205.1 22.44,353.58 92.94,445.44 70.5,91.87 201.89,137.8 394.16,137.8 551.19,0 1072.48,-119.64 1563.86,-358.91 132.45,-72.64 202.95,-111.09 211.5,-115.37 55.54,-25.63 103.62,-22.43 144.21,9.61 40.59,32.05 59.81,76.91 57.68,134.59 -2.14,57.69 -28.84,101.48 -80.11,131.39 -833.2,401.65 -1630.08,1110.94 -2390.65,2127.87 -337.55,448.64 -613.14,886.61 -826.79,1313.89 -213.63,427.28 -329.01,852.43 -346.1,1275.44 -8.54,205.1 23.5,374.94 96.14,509.53 72.64,134.59 169.84,229.67 291.63,285.21 121.77,55.55 267.04,86.53 435.82,92.94 168.78,6.41 338.62,-5.35 509.53,-35.26 170.92,-29.91 350.37,-73.7 538.38,-131.38 188,-57.69 351.44,-114.3 490.3,-169.84 138.88,-55.55 270.26,-111.1 394.18,-166.65 158.09,-76.91 316.18,-159.16 474.28,-246.75 158.09,-87.59 320.46,-185.87 487.1,-294.83 166.63,-108.96 311.92,-206.16 435.82,-291.62 123.91,-85.45 276.67,-199.75 458.27,-342.89 181.59,-143.14 319.39,-252.1 413.39,-326.87 94,-74.78 241.42,-194.41 442.24,-358.92 200.82,-164.5 339.69,-276.67 416.6,-336.48zm11286.92 -1947.59c80.9,546 22.25,1090.98 -175.92,1634.95 -198.18,543.98 -489.38,1054.58 -873.59,1531.82 -36.4,44.5 -81.91,61.68 -136.5,51.57 -54.6,-10.11 -92.01,-37.41 -112.24,-81.9 -20.21,-44.49 -14.15,-91 18.21,-139.53 347.81,-428.71 615.76,-882.7 803.82,-1361.96 188.06,-479.26 259.86,-965.6 215.36,-1459.01 -44.49,-473.2 -203.23,-904.94 -476.22,-1295.23 -273.01,-390.27 -625.88,-670.35 -1058.62,-840.22 -52.59,-20.22 -80.9,-56.62 -84.94,-109.2 -4.05,-52.58 13.14,-96.05 51.56,-130.43 38.43,-34.38 83.93,-41.46 136.5,-21.23 457.02,177.96 835.17,468.14 1134.46,870.56 299.28,402.41 485.32,852.36 558.12,1349.81zm-2061.55 -155.91c0,41.93 -18.63,78.05 -55.9,108.33 -37.28,30.29 -76.88,43.1 -118.82,38.44 -97.85,-13.98 -146.76,-74.55 -146.76,-181.71l0 -272.57c0,-41.94 19.8,-78.05 59.4,-108.33 39.6,-30.29 80.37,-43.1 122.31,-38.44 93.19,13.97 139.77,74.54 139.77,181.71l0 272.57zm20.98 1544.56c93.18,-9.32 151.42,31.45 174.72,122.3 23.29,90.86 -4.66,152.59 -83.86,185.21 -13.99,55.91 -44.27,99.01 -90.86,129.29 -46.6,30.29 -100.18,40.77 -160.75,31.45 -41.94,-9.32 -79.21,-31.45 -111.82,-66.39 -32.62,-34.95 -44.27,-73.38 -34.95,-115.32 13.97,-51.25 39.61,-102.5 76.88,-153.76 9.32,-46.58 33.78,-83.86 73.38,-111.82 39.61,-27.96 82.7,-32.61 129.3,-13.97l13.98 -6.99 13.98 0zm-2561.41 1001.18c98.27,-145.28 100.41,-324.74 6.41,-538.38 -828.94,444.38 -1228.45,813.98 -1198.54,1108.8 4.27,34.19 25.63,57.69 64.09,70.51 128.18,34.18 310.85,-10.68 547.99,-134.6 237.14,-123.91 430.49,-292.69 580.05,-506.33zm-1756.12 -1602.33c8.55,-21.36 19.23,-47 32.05,-76.91 -17.1,-21.36 -29.91,-44.86 -38.46,-70.5 -17.09,-98.27 -51.28,-162.37 -102.56,-192.28 -8.54,-8.54 -19.22,-12.81 -32.04,-12.81 -12.82,0 -27.77,2.13 -44.87,6.41 -158.09,47 -342.89,220.04 -554.4,519.15 -211.5,299.09 -315.12,544.78 -310.85,737.06 0,81.19 34.18,132.46 102.55,153.83 123.92,34.18 272.39,-54.48 445.45,-265.99 173.04,-211.51 340.75,-477.49 503.13,-797.96zm-2339.39 -1095.99c-72.64,0 -119.64,-34.18 -141,-102.54 -17.1,-38.47 -16.03,-75.85 3.19,-112.17 19.23,-36.32 48.08,-63.03 86.53,-80.12 8.55,0 22.44,-4.27 41.67,-12.81 19.23,-8.55 39.52,-17.1 60.88,-25.64 21.36,-8.55 41.66,-17.09 60.89,-25.64 19.23,-8.54 36.32,-16.03 51.27,-22.44 14.96,-6.4 22.44,-9.6 22.44,-9.6l115.37 282.01c-136.74,55.54 -222.2,87.59 -256.38,96.14 -12.82,8.54 -27.77,12.81 -44.86,12.81zm-2089.4 499.93c-42.73,243.56 -70.5,476.42 -83.32,698.62 350.38,-555.48 672.98,-1104.54 967.8,-1647.2 294.83,-542.66 541.59,-1066.08 740.27,-1570.28 198.7,-504.19 268.13,-848.16 208.31,-1031.89 -12.82,-38.46 -34.19,-66.23 -64.1,-83.33 -8.54,0 -12.81,0 -12.81,0 -119.64,0 -264.92,106.83 -435.84,320.47 -170.91,213.65 -339.69,487.1 -506.33,820.39 -166.64,333.28 -325.8,724.25 -477.5,1172.9 -151.68,448.65 -263.84,888.76 -336.48,1320.32z"/>
 </g>
</svg>
