<?xml version="1.0" encoding="UTF-8"?>
<!DOCTYPE svg PUBLIC "-//W3C//DTD SVG 1.1//EN" "http://www.w3.org/Graphics/SVG/1.1/DTD/svg11.dtd">
<!-- Creator: CorelDRAW 2020 (64 Bit) -->
<svg xmlns="http://www.w3.org/2000/svg" xml:space="preserve" width="42.3333mm" height="9.7366mm" version="1.1" style="shape-rendering:geometricPrecision; text-rendering:geometricPrecision; image-rendering:optimizeQuality; fill-rule:evenodd; clip-rule:evenodd"
viewBox="0 0 4233.32 973.66"
 xmlns:xlink="http://www.w3.org/1999/xlink"
 xmlns:xodm="http://www.corel.com/coreldraw/odm/2003">
 <defs>
  <style type="text/css">
   <![CDATA[
    .fil0 {fill:none}
    .fil1 {fill:#FEFEFE;fill-rule:nonzero}
   ]]>
  </style>
 </defs>
 <g id="Camada_x0020_1">
  <metadata id="CorelCorpID_0Corel-Layer"/>
  <polygon class="fil0" points="-0,0 4233.32,0 4233.32,973.66 -0,973.66 "/>
  <path class="fil1" d="M439.16 550.29c2.29,-1.87 4.68,-2.24 7.18,-1.09 1.1,0.5 2,1.14 2.7,1.91 -6.15,-22.83 -6.11,-52.34 0.11,-88.54 2.71,-16.03 6.66,-32.94 11.87,-50.73 5.2,-17.8 11.34,-35.12 18.42,-51.98 7.07,-16.86 14.57,-31.95 22.47,-45.27 7.91,-13.32 16.29,-23.78 25.14,-31.37 8.84,-7.6 17.32,-10.78 25.44,-9.53 0.41,0 0.83,0.11 1.25,0.32 6.24,2.08 10.51,6.45 12.8,13.11 2.91,8.95 1.51,22.79 -4.22,41.52 -5.72,18.73 -13.11,37.46 -22.16,56.19 -9.06,18.73 -19.93,39.23 -32.63,61.5 -12.69,22.27 -22.32,38.71 -28.87,49.33 -6.56,10.61 -12.44,19.98 -17.64,28.09 -0.42,0.63 -0.94,1.15 -1.56,1.57 2.49,33.92 14.36,52.96 35.59,57.13 5.82,1.04 11.65,0.67 17.48,-1.1 5.83,-1.77 10.72,-4.11 14.67,-7.02 3.96,-2.92 7.75,-6.3 11.4,-10.15 3.64,-3.85 6.08,-6.66 7.33,-8.43 0.32,-0.45 0.61,-0.88 0.88,-1.28 -1.05,-2.33 -1.81,-5.07 -2.28,-8.24 -1.15,-7.7 -0.68,-16.65 1.4,-26.85 2.08,-10.19 4.27,-19.25 6.56,-27.16 2.29,-7.91 4.89,-15.81 7.8,-23.72 0.63,-1.88 1.82,-3.23 3.59,-4.06 1.77,-0.83 3.59,-0.94 5.46,-0.31 1.25,0.41 2.29,1.14 3.13,2.18 0.83,1.04 1.35,2.14 1.56,3.28 0.21,1.15 0.1,2.45 -0.32,3.9 -4.37,12.07 -7.96,23.99 -10.77,35.75 -2.81,11.76 -4.31,20.86 -4.52,27.31 -0.21,6.46 0.41,10.62 1.87,12.49 6.87,3.75 17.17,-0.26 30.91,-12.02 13.73,-11.76 26.32,-25.55 37.77,-41.36 0.74,-0.98 1.6,-1.73 2.59,-2.24 3.61,-5.09 7.54,-9.86 11.77,-14.31 8.33,-8.74 15.82,-14.05 22.48,-15.92 5.83,-1.87 11.13,-1.35 15.92,1.56 2.71,1.67 5.1,4.16 7.18,7.49 0,-0.2 0,-0.36 0,-0.46 0,-0.11 0,-0.16 0,-0.16 1.04,-1.67 2.45,-2.86 4.22,-3.59 1.76,-0.73 3.53,-0.68 5.3,0.16 1.77,0.83 3.07,2.18 3.91,4.05 0.83,1.88 0.83,3.65 0,5.31 -2.92,7.29 -6.14,14.67 -9.68,22.17 -4.58,11.86 -7.55,22.06 -8.9,30.59 -1.35,8.53 -0.68,14.05 2.03,16.55 2.91,2.08 6.45,2.49 10.61,1.24 4.17,-1.24 8.22,-3.07 12.18,-5.46 3.95,-2.39 8.06,-5.51 12.33,-9.36 4.27,-3.85 7.86,-7.39 10.77,-10.62 2.91,-3.22 5.41,-6.19 7.49,-8.9 0.85,-0.98 1.85,-1.7 3.03,-2.16 -0.98,-1.32 -1.78,-2.42 -2.4,-3.3 -1.25,-1.77 -2.71,-3.95 -4.37,-6.55 -1.67,-2.61 -2.92,-4.9 -3.75,-6.87 -0.83,-1.98 -1.25,-3.9 -1.25,-5.78 -0.42,-5.2 0.16,-10.14 1.72,-14.83 1.56,-4.68 3.59,-8.69 6.09,-12.02 2.49,-3.33 5.61,-6.5 9.36,-9.52 3.75,-3.02 7.23,-5.41 10.46,-7.18 3.22,-1.77 6.55,-3.38 9.99,-4.84 3.43,-1.45 5.88,-2.39 7.34,-2.81 1.45,-0.41 2.7,-0.83 3.74,-1.25 1.87,-0.41 3.7,-0.15 5.46,0.78 1.77,0.94 2.92,2.4 3.44,4.38 0.52,1.97 0.26,3.85 -0.78,5.62 -1.04,1.76 -2.5,2.86 -4.37,3.27 -0.83,0.21 -2.29,0.68 -4.37,1.41 -2.08,0.73 -5.26,2.18 -9.52,4.37 -4.27,2.18 -8.17,4.63 -11.71,7.33 -3.54,2.71 -6.61,6.2 -9.21,10.46 -2.6,4.27 -3.7,8.8 -3.28,13.58 0.21,2.29 4.37,8.74 12.49,19.36 6.24,8.12 10.82,14.36 13.73,18.73 6.04,-2.91 14.26,-6.76 24.67,-11.55 5.62,-2.71 9.26,-4.37 10.92,-5 1.67,-1.04 3.49,-1.24 5.47,-0.62 1.97,0.62 3.43,1.87 4.37,3.75 0.93,1.87 1.09,3.74 0.47,5.61 -0.63,1.88 -1.88,3.23 -3.75,4.06 -1.67,0.84 -5.41,2.6 -11.24,5.31 -9.16,4.16 -17.07,7.91 -23.73,11.24 7.08,15.82 6.56,29.66 -1.56,41.52 -7.7,11.24 -17.69,20.34 -29.97,27.32 -12.28,6.97 -23.31,10.45 -33.09,10.45 -2.7,0 -5.1,-0.31 -7.18,-0.93 -8.53,-2.08 -13.21,-7.39 -14.05,-15.92 -2.29,-21.02 19.57,-43.81 65.56,-68.37 -1.9,-2.85 -4.28,-6.19 -7.16,-10.01l-0.02 0.02c-1.45,1.87 -3.17,3.95 -5.15,6.24 -1.97,2.29 -5.15,5.62 -9.52,9.99 -4.37,4.37 -8.74,8.22 -13.11,11.55 -4.37,3.33 -9.37,6.25 -14.99,8.74 -5.61,2.5 -10.92,3.75 -15.92,3.75 -4.99,0 -9.57,-1.25 -13.73,-3.75 -6.25,-3.74 -9.47,-10.51 -9.68,-20.29 -13.95,17.07 -27.16,23.94 -39.65,20.61 -10.2,-2.92 -15.4,-10.1 -15.61,-21.55 -0.01,-0.48 -0.01,-0.97 0,-1.47l-1.56 1.63c-7.49,7.81 -15.4,14.15 -23.72,19.04 -8.33,4.9 -15.93,7.34 -22.79,7.34 -2.52,0 -4.93,-0.31 -7.24,-0.93l-0.1 0.15c-1.35,1.98 -3.95,5.1 -7.8,9.37 -3.85,4.26 -7.91,8.06 -12.18,11.39 -4.27,3.33 -9.62,6.35 -16.08,9.05 -6.45,2.71 -13,4.06 -19.66,4.06 -3.33,0 -6.66,-0.31 -9.99,-0.93 -20.09,-3.9 -33.92,-17.23 -41.49,-39.99 -0.23,1.67 -1.07,3.24 -2.54,4.71 -2.08,1.87 -8.27,6.97 -18.57,15.3 -10.3,8.32 -17.02,13.68 -20.14,16.07 -3.12,2.4 -9.31,7.29 -18.57,14.68 -9.26,7.38 -16.08,12.53 -20.45,15.45 -4.37,2.91 -10.82,7.44 -19.36,13.58 -8.53,6.14 -15.71,10.82 -21.54,14.05 -5.82,3.22 -12.64,7.07 -20.44,11.55 -7.81,4.47 -15.41,8.32 -22.79,11.55 -7.39,3.22 -14.94,6.19 -22.64,8.9 -7.28,2.49 -14.62,4.73 -22.01,6.71 -7.38,1.97 -15.71,3.8 -24.97,5.46 -9.26,1.67 -18,2.19 -26.22,1.56 -8.22,-0.62 -15.98,-2.13 -23.26,-4.53 -7.29,-2.39 -13.48,-6.66 -18.58,-12.79 -5.1,-6.14 -8.37,-13.9 -9.83,-23.26 -1.87,-11.66 -1.66,-23.94 0.62,-36.84 2.29,-12.9 6.4,-25.7 12.34,-38.4 5.93,-12.69 11.81,-24.04 17.63,-34.03 5.83,-9.99 12.8,-20.6 20.92,-31.84 24.14,-34.55 50.05,-63.06 77.73,-85.54 -0.2,0 -1.19,0.16 -2.96,0.47 -1.77,0.31 -3.18,0.57 -4.22,0.78 -7.7,1.46 -13.78,2.45 -18.26,2.97 -4.47,0.52 -10.41,0.47 -17.79,-0.16 -7.39,-0.62 -13.27,-2.5 -17.64,-5.62 -7.08,-4.78 -11.4,-11.7 -12.96,-20.76 -1.56,-9.05 -0.88,-18.47 2.03,-28.25 2.92,-9.78 6.56,-18.94 10.93,-27.47 4.37,-8.54 8.84,-15.51 13.42,-20.92 12.91,-15.61 28.51,-29.34 46.83,-41.21 18.31,-11.86 37.25,-20.5 56.82,-25.91 18.1,-5.2 31.32,-4.99 39.64,0.63 7.7,4.99 12.23,12.22 13.58,21.69 1.36,9.47 -0.88,17.64 -6.71,24.51 -1.87,2.08 -4.21,2.86 -7.02,2.34 -2.81,-0.52 -4.74,-1.87 -5.78,-4.06 -1.04,-2.18 -0.73,-4.52 0.94,-7.02 3.12,-3.75 5.05,-7.13 5.77,-10.15 0.73,-3.01 0.42,-5.51 -0.93,-7.49 -1.36,-1.98 -3.28,-3.64 -5.78,-4.99 -2.5,-1.36 -5.31,-2.29 -8.43,-2.81 -3.12,-0.52 -6.24,-0.78 -9.36,-0.78 -3.12,0 -5.83,0.31 -8.12,0.93 -10.82,2.5 -23.2,7.29 -37.15,14.36 -30.18,15.4 -53.07,34.24 -68.68,56.51 -10.2,14.57 -15.61,29.03 -16.23,43.39 -0.42,9.99 1.09,17.22 4.52,21.7 3.44,4.47 9.84,6.71 19.2,6.71 26.85,0 52.24,-5.83 76.18,-17.48 6.45,-3.54 9.88,-5.41 10.3,-5.62 2.7,-1.25 5.05,-1.09 7.02,0.47 1.98,1.56 2.92,3.74 2.81,6.55 -0.1,2.81 -1.4,4.94 -3.9,6.4 -40.58,19.57 -79.4,54.11 -116.44,103.65 -16.45,21.85 -29.87,43.18 -40.28,63.99 -10.4,20.82 -16.02,41.52 -16.85,62.13 -0.42,9.99 1.14,18.26 4.68,24.82 3.54,6.55 8.27,11.18 14.2,13.89 5.93,2.7 13.01,4.21 21.23,4.53 8.22,0.31 16.5,-0.27 24.82,-1.72 8.32,-1.46 17.07,-3.59 26.22,-6.4 9.16,-2.81 17.12,-5.57 23.89,-8.27 6.76,-2.71 13.16,-5.42 19.19,-8.12 7.71,-3.75 15.41,-7.75 23.11,-12.02 7.7,-4.27 15.61,-9.05 23.72,-14.36 8.12,-5.31 15.19,-10.04 21.23,-14.21 6.04,-4.16 13.48,-9.72 22.32,-16.7 8.85,-6.97 15.56,-12.28 20.14,-15.92 4.58,-3.64 11.76,-9.47 21.54,-17.48 9.78,-8.01 16.54,-13.48 20.29,-16.39zm549.77 -94.86c3.94,26.59 1.08,53.14 -8.57,79.63 -9.66,26.5 -23.84,51.37 -42.55,74.61 -1.78,2.17 -3.99,3.01 -6.65,2.52 -2.66,-0.5 -4.48,-1.83 -5.47,-3.99 -0.98,-2.17 -0.69,-4.44 0.89,-6.8 16.94,-20.88 29.99,-42.99 39.15,-66.34 9.16,-23.34 12.66,-47.03 10.49,-71.06 -2.17,-23.05 -9.9,-44.08 -23.2,-63.09 -13.29,-19.01 -30.48,-32.65 -51.56,-40.93 -2.56,-0.98 -3.94,-2.76 -4.14,-5.32 -0.19,-2.56 0.64,-4.67 2.51,-6.35 1.88,-1.67 4.09,-2.02 6.65,-1.03 22.26,8.66 40.68,22.8 55.26,42.4 14.58,19.6 23.64,41.52 27.19,65.75zm-100.42 -7.6c0,2.04 -0.91,3.8 -2.72,5.28 -1.82,1.47 -3.75,2.1 -5.79,1.87 -4.77,-0.68 -7.15,-3.63 -7.15,-8.85l0 -13.28c0,-2.04 0.97,-3.8 2.9,-5.27 1.92,-1.48 3.91,-2.1 5.95,-1.87 4.54,0.68 6.81,3.63 6.81,8.85l0 13.27zm1.02 75.24c4.54,-0.46 7.38,1.53 8.51,5.95 1.14,4.43 -0.22,7.43 -4.08,9.02 -0.68,2.73 -2.16,4.83 -4.43,6.3 -2.27,1.48 -4.88,1.99 -7.83,1.53 -2.04,-0.45 -3.86,-1.53 -5.44,-3.23 -1.59,-1.7 -2.16,-3.57 -1.71,-5.62 0.68,-2.49 1.93,-4.99 3.75,-7.49 0.45,-2.27 1.64,-4.08 3.57,-5.44 1.93,-1.37 4.03,-1.59 6.3,-0.68l0.68 -0.34 0.68 0zm-124.76 48.76c4.79,-7.08 4.89,-15.82 0.31,-26.22 -40.37,21.64 -59.83,39.64 -58.38,54.01 0.21,1.66 1.25,2.8 3.13,3.43 6.24,1.66 15.14,-0.52 26.69,-6.56 11.55,-6.03 20.97,-14.25 28.25,-24.66zm-85.54 -78.05c0.42,-1.04 0.94,-2.28 1.56,-3.74 -0.83,-1.04 -1.45,-2.19 -1.87,-3.44 -0.83,-4.78 -2.5,-7.9 -4.99,-9.36 -0.42,-0.42 -0.94,-0.63 -1.56,-0.63 -0.63,0 -1.36,0.11 -2.19,0.32 -7.7,2.29 -16.7,10.71 -27,25.28 -10.31,14.57 -15.35,26.54 -15.15,35.9 0,3.96 1.67,6.46 5,7.5 6.04,1.66 13.27,-2.66 21.7,-12.96 8.43,-10.3 16.59,-23.26 24.5,-38.87zm-113.94 -53.38c-3.54,0 -5.83,-1.66 -6.87,-4.99 -0.83,-1.88 -0.78,-3.7 0.15,-5.47 0.94,-1.77 2.35,-3.07 4.22,-3.9 0.41,0 1.09,-0.21 2.03,-0.62 0.93,-0.42 1.92,-0.84 2.96,-1.25 1.04,-0.42 2.03,-0.84 2.97,-1.25 0.94,-0.42 1.77,-0.78 2.5,-1.09 0.73,-0.32 1.09,-0.47 1.09,-0.47l5.62 13.73c-6.66,2.71 -10.82,4.27 -12.49,4.69 -0.62,0.41 -1.35,0.62 -2.18,0.62zm-101.77 24.35c-2.09,11.86 -3.44,23.21 -4.06,34.03 17.06,-27.06 32.78,-53.8 47.14,-80.23 14.36,-26.43 26.38,-51.93 36.05,-76.49 9.68,-24.56 13.06,-41.31 10.15,-50.26 -0.62,-1.87 -1.66,-3.23 -3.12,-4.06 -0.42,0 -0.63,0 -0.63,0 -5.82,0 -12.9,5.21 -21.22,15.61 -8.33,10.41 -16.55,23.73 -24.67,39.96 -8.11,16.23 -15.87,35.28 -23.26,57.13 -7.38,21.85 -12.85,43.29 -16.38,64.31z"/>
  <g id="_2002392709504">
   <path class="fil1" d="M2241.25 634.69l310.89 0c11.33,0 17.61,-6.28 17.61,-17.61l0 -62.82c0,-11.21 -6.28,-17.49 -17.61,-17.49l-176.38 0 103.95 -101.62c44.71,-44.22 81.67,-102.35 81.67,-161.48 0,-114.05 -84.01,-166.28 -168.13,-166.28 -81.05,0 -160.37,46.19 -168.87,150.15 -0.74,12.07 5.54,18.35 16.87,18.35l67.01 0c10.59,0 16.5,-5.79 18.35,-17 5.91,-36.46 31.78,-52.47 68.85,-52.47 38.31,0 64.3,23.65 64.3,67.25 0,36.34 -27.84,74.77 -60.36,107.9l-166.65 168.13c-6.28,6.28 -9.11,13.06 -9.11,21.56l0 45.82c0,11.33 6.28,17.61 17.61,17.61zm577.67 9.98c131.92,0 206.93,-109.01 206.93,-268.64 0,-159.63 -75.01,-268.64 -206.93,-268.64 -131.91,0 -206.92,109.01 -206.92,268.64 0,159.63 75.01,268.64 206.92,268.64zm0 -99.03c-69.22,0 -105.31,-60.23 -105.31,-169.61 0,-109.38 36.09,-169.61 105.31,-169.61 69.35,0 105.32,60.23 105.32,169.61 0,109.38 -35.97,169.61 -105.32,169.61zm639.27 -93.12l-37.82 0 0 -105.19c0,-11.21 -6.28,-17.49 -17.61,-17.49l-67.62 0c-11.21,0 -17.49,6.28 -17.49,17.49l0 105.19 -140.66 0 160.98 -314.09c6.28,-12.56 0.74,-21.06 -12.56,-21.06l-72.3 0c-9.73,0 -16.26,4.06 -20.45,12.56l-160.25 312c-3.45,7.63 -4.92,14.04 -4.92,21.8l0 65.4c0,11.33 6.28,17.62 17.49,17.62l232.67 0 0 70.33c0,11.33 6.28,17.61 17.49,17.61l67.62 0c11.33,0 17.61,-6.28 17.61,-17.61l0 -70.33 37.82 0c11.33,0 17.61,-6.29 17.61,-17.62l0 -59.12c0,-11.21 -6.28,-17.49 -17.61,-17.49zm349.56 -87.08c33.01,-23.28 54.19,-59 54.19,-106.92 0,-100.01 -77.47,-151.13 -168.13,-151.13 -90.78,0 -168.13,51.12 -168.13,151.13 0,47.92 21.06,83.64 54.07,106.92 -45.82,27.34 -71.68,72.3 -71.68,125.02 0,95.33 70.7,154.21 185.62,154.21 114.92,0 185.74,-58.88 185.74,-154.21 0,-52.72 -25.86,-97.68 -71.68,-125.02l0 0zm-114.06 -162.34c38.3,0 66.51,22.54 66.51,60.97 0,37.32 -28.21,60.97 -66.51,60.97 -38.19,0 -66.51,-23.65 -66.51,-60.97 0,-38.43 28.32,-60.97 66.51,-60.97zm0 345.86c-48.53,0 -84,-25.37 -84,-71.31 0,-46.07 35.47,-71.32 84,-71.32 48.65,0 84.12,25.25 84.12,71.32 0,45.94 -35.47,71.31 -84.12,71.31z"/>
   <path class="fil1" d="M2295.55 861.91l-17.8 -85.3c-0.32,-1.52 -1.24,-2.28 -2.82,-2.28l-4.88 0c-1.44,0 -2.37,0.56 -3.08,1.81l-47.89 85.51c-0.99,1.79 -0.24,3.08 1.81,3.08l4.22 0c1.44,0 2.37,-0.56 3.08,-1.81l11.34 -20.4 42.92 0 3.93 19.91c0.31,1.55 1.23,2.3 2.8,2.3l4.07 0c1.81,0 2.67,-1.05 2.3,-2.82l0 0zm-51.29 -27.92l26.95 -48.42 9.56 48.42 -36.51 0zm170.75 -57.31l-12.25 70.23 -31.16 -70.62c-0.58,-1.36 -1.53,-1.96 -2.99,-1.96l-2.48 0c-1.57,0 -2.5,0.78 -2.78,2.35l-14.98 85.25c-0.32,1.77 0.56,2.8 2.35,2.8l3.83 0c1.57,0 2.5,-0.77 2.78,-2.35l12.37 -70.23 31.04 70.62c0.58,1.34 1.53,1.96 3.01,1.96l2.46 0c1.57,0 2.49,-0.77 2.77,-2.35l14.98 -85.25c0.33,-1.76 -0.56,-2.8 -2.34,-2.8l-3.81 0c-1.59,0 -2.52,0.78 -2.8,2.35l0 0zm69.82 0l-14.98 85.25c-0.32,1.77 0.56,2.8 2.35,2.8l3.83 0c1.57,0 2.5,-0.77 2.78,-2.35l14.98 -85.25c0.32,-1.76 -0.56,-2.8 -2.35,-2.8l-3.83 0c-1.57,0 -2.5,0.78 -2.78,2.35l0 0zm150.04 -2.35l-2.8 0 -4.47 0c-1.42,0 -2.35,0.52 -3.12,1.7l-40.23 62.87 -17.97 -62.39c-0.43,-1.47 -1.36,-2.18 -2.89,-2.18l-2.13 0 -3.83 0c-1.57,0 -2.5,0.78 -2.78,2.35l-14.98 85.25c-0.32,1.77 0.56,2.8 2.35,2.8l3.83 0c1.57,0 2.5,-0.77 2.78,-2.35l12.78 -72.81 16.66 57.36c0.41,1.46 1.36,2.17 2.89,2.17l4.75 0c1.42,0 2.35,-0.51 3.1,-1.7l37.19 -57.85 -12.72 72.38c-0.32,1.77 0.56,2.8 2.35,2.8l3.81 0c1.59,0 2.52,-0.77 2.8,-2.35l14.98 -85.25c0.3,-1.76 -0.56,-2.8 -2.35,-2.8l0 0zm116.89 87.58l-17.8 -85.3c-0.32,-1.52 -1.24,-2.28 -2.82,-2.28l-4.88 0c-1.44,0 -2.37,0.56 -3.08,1.81l-47.89 85.51c-0.99,1.79 -0.24,3.08 1.81,3.08l4.22 0c1.44,0 2.37,-0.56 3.08,-1.81l11.34 -20.4 42.92 0 3.93 19.91c0.31,1.55 1.23,2.3 2.8,2.3l4.07 0c1.81,0 2.67,-1.05 2.3,-2.82l0 0zm-51.29 -27.92l26.95 -48.42 9.56 48.42 -36.51 0zm160.59 -59.66l-22.36 0 -31.84 0c-1.59,0 -2.51,0.78 -2.77,2.35l-0.56 3.4c-0.3,1.74 0.56,2.78 2.34,2.78l22.28 0 -13.88 79.07c-0.32,1.77 0.56,2.8 2.34,2.8l3.84 0c1.57,0 2.49,-0.77 2.77,-2.35l13.97 -79.52 22.88 0c1.59,0 2.52,-0.78 2.78,-2.35l0.56 -3.4c0.3,-1.74 -0.56,-2.78 -2.35,-2.78l0 0zm104.02 0l-39.13 0 -6.71 0c-1.55,0 -2.46,0.78 -2.71,2.33l-14.98 85.23c-0.26,1.68 0.64,2.84 2.32,2.84l1.03 0 45.46 0c1.55,0 2.45,-0.77 2.71,-2.32l0.65 -3.36c0.26,-1.81 -0.65,-2.84 -2.33,-2.84l-39.81 0 5.74 -32.8 36.4 0c1.55,0 2.45,-0.78 2.71,-2.33l0.65 -3.36c0.25,-1.8 -0.65,-2.84 -2.33,-2.84l-35.92 0 5.62 -32.02 39.6 0c1.55,0 2.58,-0.65 2.84,-2.33l0.52 -3.36c0.26,-1.68 -0.65,-2.84 -2.33,-2.84l0 0zm96.55 0l-28.41 0 -6.67 0c-1.57,0 -2.5,0.78 -2.78,2.35l-14.98 85.25c-0.32,1.77 0.56,2.8 2.35,2.8l1.03 0 33.58 0c25.57,0 46.23,-18.98 50.62,-43.91 4.39,-24.92 -10.46,-46.49 -34.74,-46.49l0 0zm25.96 45.2c-3.61,20.28 -20.14,36.68 -40.29,36.68l-28.45 0 12.87 -73.35 28.49 0c20.15,0 30.87,16.4 27.38,36.67l0 0zm152.99 -45.2l-39.13 0 -6.71 0c-1.55,0 -2.46,0.78 -2.71,2.33l-14.98 85.23c-0.26,1.68 0.64,2.84 2.32,2.84l1.03 0 45.46 0c1.55,0 2.45,-0.77 2.71,-2.32l0.65 -3.36c0.26,-1.81 -0.65,-2.84 -2.33,-2.84l-39.81 0 5.74 -32.8 36.4 0c1.55,0 2.45,-0.78 2.71,-2.33l0.65 -3.36c0.25,-1.8 -0.65,-2.84 -2.33,-2.84l-35.92 0 5.62 -32.02 39.6 0c1.55,0 2.58,-0.65 2.84,-2.33l0.52 -3.36c0.26,-1.68 -0.65,-2.84 -2.33,-2.84l0 0zm96.55 0l-28.41 0 -6.67 0c-1.57,0 -2.5,0.78 -2.78,2.35l-14.98 85.25c-0.32,1.77 0.56,2.8 2.35,2.8l1.03 0 33.58 0c25.57,0 46.23,-18.98 50.62,-43.91 4.39,-24.92 -10.46,-46.49 -34.74,-46.49l0 0zm25.96 45.2c-3.61,20.28 -20.14,36.68 -40.29,36.68l-28.45 0 12.87 -73.35 28.49 0c20.15,0 30.87,16.4 27.38,36.67l0 0zm72.12 -42.85l-14.98 85.25c-0.32,1.77 0.56,2.8 2.35,2.8l3.83 0c1.57,0 2.5,-0.77 2.78,-2.35l14.98 -85.25c0.32,-1.76 -0.56,-2.8 -2.35,-2.8l-3.83 0c-1.57,0 -2.5,0.78 -2.78,2.35l0 0zm119.07 -2.35l-22.36 0 -31.84 0c-1.59,0 -2.51,0.78 -2.77,2.35l-0.56 3.4c-0.3,1.74 0.56,2.78 2.34,2.78l22.28 0 -13.88 79.07c-0.32,1.77 0.56,2.8 2.34,2.8l3.84 0c1.57,0 2.49,-0.77 2.77,-2.35l13.97 -79.52 22.88 0c1.59,0 2.52,-0.78 2.78,-2.35l0.56 -3.4c0.3,-1.74 -0.56,-2.78 -2.35,-2.78l0 0zm55.44 2.35l-14.98 85.25c-0.32,1.77 0.56,2.8 2.35,2.8l3.83 0c1.57,0 2.5,-0.77 2.78,-2.35l14.98 -85.25c0.32,-1.76 -0.56,-2.8 -2.35,-2.8l-3.83 0c-1.57,0 -2.5,0.78 -2.78,2.35l0 0zm96.19 89.6c27.25,0 49.98,-18.98 54.63,-44.81 4.52,-25.83 -12.79,-48.69 -39.13,-48.69 -26.99,0 -49.85,19.63 -54.37,45.46 -4.65,25.83 12.78,48.04 38.87,48.04zm1.55 -8.78c-21.82,0 -35.13,-16.92 -31.38,-37.97 3.61,-21.05 21.69,-37.97 43.78,-37.97 22.08,0 35.25,17.57 31.64,38.62 -3.75,21.05 -21.7,37.32 -44.04,37.32zm168.21 -80.82l-12.25 70.23 -31.16 -70.62c-0.58,-1.36 -1.53,-1.96 -2.99,-1.96l-2.48 0c-1.57,0 -2.5,0.78 -2.78,2.35l-14.98 85.25c-0.32,1.77 0.56,2.8 2.35,2.8l3.83 0c1.57,0 2.5,-0.77 2.78,-2.35l12.37 -70.23 31.04 70.62c0.58,1.34 1.53,1.96 3.01,1.96l2.46 0c1.57,0 2.49,-0.77 2.77,-2.35l14.98 -85.25c0.33,-1.76 -0.56,-2.8 -2.34,-2.8l-3.81 0c-1.59,0 -2.52,0.78 -2.8,2.35l0 0z"/>
  </g>
 </g>
</svg>
